<svg xmlns="http://www.w3.org/2000/svg" viewBox="0 0 800 200" fill="none">
  <!-- Duck Mark (small, left) -->
  <g transform="translate(10, 10) scale(0.35)">
    <ellipse cx="256" cy="320" rx="140" ry="110" fill="#0A0A0B" stroke="#4ADE80" stroke-width="6"/>
    <circle cx="220" cy="190" r="80" fill="#0A0A0B" stroke="#4ADE80" stroke-width="6"/>
    <path d="M190 260 Q200 300 200 340 Q220 360 260 340 Q250 300 240 260 Z" fill="#0A0A0B" stroke="#4ADE80" stroke-width="4"/>
    <path d="M140 175 L100 195 L140 210 Z" fill="#4ADE80" stroke="#4ADE80" stroke-width="2" stroke-linejoin="round"/>
    <circle cx="200" cy="175" r="12" fill="#4ADE80"/>
    <circle cx="200" cy="175" r="6" fill="#0A0A0B"/>
    <path d="M290 140 L310 100 L300 130 L325 90" stroke="#4ADE80" stroke-width="3" stroke-linecap="round" stroke-linejoin="round" opacity="0.8"/>
    <path d="M220 290 Q260 260 320 280 Q300 310 260 320 Q240 310 220 290 Z" fill="#0A0A0B" stroke="#4ADE80" stroke-width="3" opacity="0.6"/>
    <path d="M396 280 L420 260 L410 290 Z" fill="#4ADE80" opacity="0.7"/>
  </g>
  <!-- Wordmark -->
  <text x="230" y="120" font-family="system-ui, -apple-system, 'Segoe UI', Roboto, sans-serif" font-size="72" font-weight="700" fill="#4ADE80">Hapi</text>
  <text x="460" y="120" font-family="system-ui, -apple-system, 'Segoe UI', Roboto, sans-serif" font-size="72" font-weight="700" fill="#F8FAFC">Power</text>
</svg>
